<svg width="63" height="57" viewBox="0 0 63 57" fill="none" xmlns="http://www.w3.org/2000/svg">
<g clip-path="url(#clip0_387_509)">
<path d="M7.58589 28.295C7.59106 22.1465 9.69209 15.9798 13.507 11.0875C15.3938 8.62708 17.7065 6.50145 20.2798 4.76773C21.5652 3.89568 22.9332 3.1508 24.3503 2.51493C25.7673 1.87906 27.2334 1.35219 28.7356 0.949907C30.2404 0.558003 31.7762 0.285487 33.3248 0.132359C33.712 0.101214 34.0992 0.0622834 34.4889 0.0415203L35.6556 0.00778016C36.0453 -0.0051968 36.4351 0.00518477 36.8223 0.0155663C37.0158 0.0207571 37.212 0.0285433 37.4056 0.0389249L37.6973 0.0544972L37.8418 0.0622834C37.8624 0.0622834 37.8986 0.0648788 37.9347 0.0700696L38.0096 0.0778557C39.5789 0.243961 41.1714 0.656628 42.5833 1.50792C43.288 1.93356 43.9332 2.48119 44.4598 3.13523C44.9838 3.78667 45.3942 4.53933 45.6471 5.34131C45.9026 6.14069 46.0162 6.97122 46.0188 7.79136C46.0239 8.6115 45.9259 9.41867 45.7633 10.2051C45.6807 10.5996 45.5826 10.9863 45.469 11.3704C45.358 11.7519 45.2341 12.1257 45.0999 12.4994C45.0328 12.6863 44.9631 12.8705 44.8908 13.0548L44.6766 13.5973C44.5269 13.958 44.3669 14.3162 44.2043 14.6743C43.5667 16.0914 42.8285 17.4722 42.0593 18.8036L40.9159 20.8047C40.5287 21.4691 40.1674 22.1335 39.7905 22.7979C39.0343 24.1216 38.3012 25.4582 37.6818 26.8286C37.5346 27.1634 37.3643 27.5086 37.2636 27.8278C37.1578 28.147 37.0933 28.4637 37.1036 28.7414C37.1088 28.8763 37.132 29.0243 37.1681 29.1618C37.1862 29.2267 37.212 29.3072 37.2404 29.3798C37.2688 29.4525 37.2998 29.5278 37.3333 29.603C37.403 29.7536 37.483 29.9067 37.5837 30.0624L37.8676 30.527L42.8776 38.2405C43.7138 39.5278 44.5501 40.9008 45.0483 42.458C45.2961 43.2314 45.4484 44.0594 45.4535 44.8899V45.0482C45.4535 45.1079 45.4509 45.1624 45.4484 45.2143C45.4432 45.3181 45.4355 45.4245 45.4251 45.5284C45.4045 45.7386 45.3761 45.9436 45.3296 46.159C45.2419 46.5795 45.1025 46.9896 44.9141 47.3763C44.7256 47.763 44.4856 48.1289 44.2068 48.4534C43.9281 48.7778 43.6132 49.0659 43.2751 49.315C42.6014 49.8133 41.8477 50.1689 41.0785 50.4155C40.6913 50.5375 40.3016 50.6361 39.9093 50.7114C39.7131 50.7503 39.5144 50.7814 39.3182 50.81C39.122 50.8359 38.931 50.8619 38.7349 50.8827C37.9605 50.9709 37.181 51.0202 36.4041 51.0358C34.8503 51.0669 33.299 50.9735 31.7658 50.7918C30.2301 50.6049 28.715 50.3506 27.2076 50.0184C24.1928 49.354 21.2503 48.4196 18.4576 47.0726L17.9414 46.8235C17.7684 46.7378 17.5852 46.6418 17.42 46.5535L16.9141 46.281L16.6611 46.1461L16.4082 45.9981C16.0752 45.8009 15.7474 45.6088 15.417 45.4064L14.4491 44.7679C13.1689 43.901 11.979 42.907 10.8871 41.8169C9.8005 40.7217 8.82225 39.5226 7.95241 38.2535C7.09806 36.9739 6.3547 35.6217 5.73523 34.2176C6.41406 35.5932 7.20905 36.9091 8.10986 38.1419C9.01583 39.3695 10.0251 40.5218 11.1324 41.5626C12.2474 42.5956 13.4399 43.5429 14.7175 44.3552L15.6829 44.9548C16.0107 45.1416 16.3488 45.3285 16.6792 45.5102L16.9244 45.6451L17.1799 45.7723L17.691 46.0267C17.8665 46.1149 18.0214 46.1902 18.1943 46.2706L18.7183 46.5042L19.2345 46.7352C19.4048 46.8131 19.5855 46.8806 19.761 46.9532L20.2902 47.1686L20.5457 47.2699L20.8116 47.3685L21.3484 47.5631C21.5265 47.6254 21.6995 47.6929 21.8801 47.7526L22.9616 48.1004C23.6818 48.3132 24.4174 48.526 25.153 48.7051C25.3363 48.7518 25.5169 48.7986 25.7028 48.8427L26.2577 48.9647C26.6268 49.0477 26.9959 49.1308 27.3702 49.1982C30.3462 49.7666 33.3687 50.1533 36.3706 50.0391C37.1191 50.0106 37.8676 49.9509 38.6084 49.8549C38.7942 49.8315 38.9801 49.8056 39.1607 49.777C39.3414 49.7485 39.5195 49.7147 39.6976 49.6784C40.0538 49.6031 40.4023 49.5097 40.743 49.3955C41.4218 49.1645 42.0671 48.8531 42.622 48.4326C43.177 48.0147 43.6235 47.4957 43.91 46.8857C44.0546 46.5821 44.1604 46.2577 44.2249 45.9255C44.2894 45.601 44.3204 45.2325 44.3127 44.9029C44.3023 44.1943 44.1655 43.4962 43.941 42.811C43.7164 42.1258 43.4067 41.4614 43.0505 40.8125C42.6943 40.1637 42.2891 39.5304 41.8658 38.8945L39.3414 35.0534C38.5 33.7686 37.6585 32.4943 36.8223 31.1966L36.5048 30.6801C36.3964 30.5114 36.2983 30.3271 36.2054 30.1299C36.1589 30.0313 36.115 29.9275 36.0737 29.821C36.0531 29.7691 36.035 29.7146 36.0169 29.6627C35.9989 29.6108 35.9808 29.5511 35.9653 29.494C35.9008 29.263 35.8621 29.0295 35.8543 28.7803C35.8388 28.2872 35.9421 27.8408 36.0737 27.4333C36.2054 27.0206 36.3757 26.6754 36.5357 26.3069C36.6183 26.12 36.6932 25.9565 36.781 25.7748L36.9074 25.5075L36.972 25.3725L37.0003 25.3129L37.0339 25.248L37.563 24.2098C37.6508 24.0385 37.7385 23.862 37.8289 23.6933L38.1128 23.1872L38.6807 22.1776C39.0627 21.508 39.4369 20.828 39.8241 20.1688L40.9701 18.1807C41.7393 16.8571 42.4517 15.5308 43.0815 14.1527C43.7113 12.7927 44.261 11.3782 44.5682 9.95332C44.8702 8.52586 44.9218 7.04389 44.5088 5.70467C44.3049 5.04025 43.9745 4.41995 43.5461 3.87232C43.115 3.32729 42.5833 2.86531 41.9819 2.49157C41.3831 2.11783 40.7172 1.83494 40.0254 1.61692C39.3337 1.40151 38.6161 1.26135 37.8831 1.1783L37.8134 1.17052C37.8134 1.17052 37.7928 1.17052 37.7644 1.16532L37.6224 1.15494L37.3411 1.13678C37.1552 1.12639 36.9668 1.11601 36.781 1.10823C36.4067 1.09525 36.0324 1.08227 35.6582 1.09006L34.5354 1.11342C34.1611 1.13158 33.7869 1.16273 33.4126 1.18609C31.9181 1.30807 30.434 1.54685 28.9756 1.90242C27.5199 2.26837 26.0925 2.7537 24.7116 3.34805C23.3307 3.94239 21.9937 4.64575 20.7238 5.4607C18.1866 7.08541 15.8868 9.10982 13.9845 11.4716C10.118 16.1537 7.86465 22.1543 7.58073 28.2898L7.58589 28.295Z" fill="#69C4F7"/>
<path d="M39.5015 45.479C39.5944 45.2662 39.584 45.03 39.5531 44.8068C39.5195 44.5836 39.455 44.363 39.3801 44.1502C39.2253 43.722 39.0265 43.3119 38.8071 42.9148C38.3735 42.1154 37.865 41.3576 37.3436 40.6101C36.2957 39.1177 35.1807 37.6695 34.1095 36.1772C33.5752 35.4297 33.0564 34.6666 32.5711 33.8751C32.0885 33.0835 31.6394 32.2607 31.2909 31.3731C31.1128 30.9319 30.9734 30.4673 30.8753 29.9872C30.8366 29.7432 30.7902 29.5018 30.7824 29.2501C30.7566 29.0009 30.7747 28.7492 30.7824 28.5C30.8753 27.5137 31.1489 26.5898 31.4793 25.7125C32.1504 23.9555 33.0125 22.3204 33.8798 20.7034C34.7496 19.0865 35.6401 17.4903 36.4686 15.8734C36.8816 15.0636 37.2843 14.2539 37.6534 13.4337C38.0199 12.6136 38.358 11.7857 38.6084 10.9474C38.7323 10.5295 38.8381 10.109 38.9001 9.69638C38.9284 9.49134 38.9543 9.28371 38.9568 9.08906C38.9646 8.89181 38.9568 8.69975 38.9259 8.52845C38.8975 8.35456 38.8484 8.20403 38.7839 8.09243C38.7194 7.98861 38.6265 7.88998 38.4974 7.79915C38.2393 7.61487 37.8624 7.49029 37.4675 7.40984C37.0675 7.32938 36.6467 7.28526 36.2157 7.27228C36.0015 7.2619 35.7846 7.2645 35.5601 7.27228L34.8967 7.28785C34.7857 7.28785 34.6748 7.29564 34.5638 7.30343L34.2334 7.32678C34.0114 7.34495 33.792 7.35533 33.57 7.37869L32.9119 7.46175L32.5815 7.50327L32.2537 7.56037C30.5088 7.85624 28.7924 8.35197 27.1689 9.07089C25.5428 9.77943 23.9915 10.6748 22.5848 11.7701L22.0582 12.1802L21.5498 12.6162L21.2968 12.8342C21.2142 12.9095 21.1342 12.9873 21.0516 13.0626L20.5638 13.5194C19.934 14.1501 19.3171 14.7989 18.7647 15.5023C18.1943 16.1926 17.691 16.9349 17.2083 17.6902L16.8676 18.269L16.6972 18.5596L16.5398 18.8581L16.2249 19.4525C16.1242 19.6523 16.0313 19.8573 15.9358 20.0598C15.7345 20.4621 15.5745 20.8825 15.3989 21.2978C15.3551 21.4016 15.3138 21.5054 15.2776 21.6118L15.1641 21.9285C15.0918 22.1413 15.0066 22.3515 14.9421 22.5669L14.7459 23.2132C14.7149 23.3222 14.6788 23.4286 14.6504 23.5376L14.5678 23.8646L14.4026 24.5213L14.2684 25.1857C14.1677 25.6269 14.1135 26.0759 14.0439 26.5223C14.0051 26.7455 13.9897 26.9713 13.9664 27.1971L13.8993 27.8745L13.8658 28.5545C13.8529 28.7829 13.8451 29.0009 13.8245 29.2553C13.7806 29.7432 13.6102 30.2155 13.3521 30.6256C13.094 31.0357 12.7507 31.3861 12.3455 31.6378C11.9402 31.8896 11.4808 32.0479 11.0136 32.0972C10.0767 32.2036 9.12166 31.8377 8.49445 31.1707C9.16812 31.791 10.118 32.0687 10.9904 31.9077C11.4266 31.8351 11.8396 31.6638 12.1958 31.412C12.552 31.1603 12.8436 30.8229 13.0527 30.4465C13.2618 30.0702 13.3831 29.6472 13.4037 29.2215C13.4115 29.0165 13.4089 28.7777 13.4115 28.5467V27.8511L13.4476 27.1582C13.4605 26.9272 13.4657 26.6936 13.4941 26.4652C13.5431 26.0032 13.5793 25.5412 13.6593 25.0819C13.6954 24.8535 13.729 24.6225 13.7703 24.3941L13.9148 23.7115L13.9871 23.3689C14.0129 23.2547 14.0439 23.1431 14.0748 23.0315L14.2529 22.3567C14.3123 22.1309 14.3897 21.9129 14.4594 21.6897L14.5652 21.3575C14.5988 21.2459 14.6349 21.1343 14.6788 21.0279C14.844 20.5918 14.9937 20.1506 15.1873 19.725C15.2802 19.5122 15.368 19.2941 15.4661 19.0839L15.7732 18.4558L15.9281 18.1418L16.0984 17.8355L16.4391 17.223C16.9218 16.4236 17.4251 15.6346 18.0007 14.8975C18.5582 14.1475 19.1829 13.4493 19.8281 12.7719L20.3289 12.2814C20.4141 12.2009 20.4967 12.1179 20.5818 12.0374L20.8451 11.8038L21.3717 11.3393L21.9189 10.898C23.3798 9.72493 24.9956 8.75425 26.7017 7.97823C26.8075 7.92892 26.9133 7.87701 27.0217 7.83289L27.347 7.70052L28 7.43839L28.6633 7.2074C28.8853 7.13213 29.1047 7.05167 29.3318 6.99198L30.0081 6.79733C30.1191 6.76359 30.2326 6.73504 30.3488 6.70908L30.6895 6.62862C30.9192 6.57672 31.1438 6.51702 31.3735 6.4729L32.0652 6.34573L32.4111 6.28344L32.7596 6.23672L33.4565 6.14588C33.6888 6.11993 33.9236 6.10695 34.156 6.08619L34.507 6.05764C34.6231 6.04726 34.7393 6.03947 34.858 6.03947L35.5601 6.01871C35.7924 6.01092 36.0298 6.00573 36.2725 6.01871C36.7526 6.03168 37.2404 6.07581 37.736 6.17703C37.9838 6.23412 38.2341 6.29382 38.4845 6.38985C38.7349 6.48588 38.9904 6.60008 39.233 6.77916C39.4756 6.95305 39.7105 7.18404 39.8809 7.47472C40.0435 7.76281 40.1235 8.05609 40.17 8.33639C40.2138 8.61669 40.2242 8.88662 40.2138 9.14356C40.2061 9.40569 40.1751 9.65485 40.139 9.90141C40.0616 10.3945 39.9402 10.8643 39.8009 11.3211C39.5221 12.2399 39.1607 13.1067 38.7762 13.9554C38.389 14.8041 37.9734 15.632 37.5372 16.4444C36.67 18.0717 35.7511 19.6601 34.8606 21.2511C34.4141 22.0478 33.9804 22.8446 33.5597 23.6492C33.1416 24.4512 32.7441 25.2609 32.406 26.0863C32.0678 26.909 31.7994 27.7551 31.6987 28.5934C31.6884 28.8011 31.6652 29.0087 31.6832 29.2163C31.6832 29.424 31.7194 29.6342 31.7452 29.8444C31.7581 29.9482 31.7891 30.0546 31.8097 30.1584C31.8329 30.2623 31.8484 30.3687 31.882 30.4725C31.9439 30.6801 31.9956 30.8904 32.0756 31.098C32.3672 31.9285 32.7647 32.7331 33.2061 33.5221C33.6475 34.3085 34.1353 35.0767 34.6309 35.8424C35.6194 37.3736 36.6751 38.8712 37.6456 40.4336C38.1283 41.2148 38.5955 42.009 38.9878 42.8447C39.1814 43.2626 39.3543 43.6934 39.4808 44.1372C39.5428 44.3604 39.5892 44.5862 39.6099 44.8172C39.6279 45.0456 39.6176 45.2896 39.5118 45.4946L39.5015 45.479Z" fill="#69C4F7"/>
<path d="M2.69208 23.5091C2.74628 24.0982 2.84437 24.6796 2.92954 25.2635C2.96826 25.5568 3.03279 25.8449 3.08441 26.133C3.14119 26.4211 3.19024 26.7118 3.25476 26.9999L3.45609 27.8589C3.49223 28.0017 3.52062 28.1444 3.55934 28.2872L3.67549 28.7128L3.90779 29.5615L4.1788 30.3972L4.31302 30.8151C4.35948 30.9526 4.41369 31.0902 4.46531 31.2278L4.77504 32.0479C4.88087 32.3204 5.00476 32.5851 5.11833 32.8551C5.23706 33.1224 5.34289 33.3949 5.47711 33.6519C7.4336 37.8875 10.5748 41.4821 14.5007 43.8933C14.622 43.9711 14.7408 44.049 14.8646 44.1243L15.2389 44.3397C15.4893 44.4824 15.7371 44.6278 15.9874 44.7679L16.754 45.165C16.8831 45.2299 17.007 45.3 17.1386 45.3623L17.5309 45.5439C17.7916 45.6633 18.0523 45.7905 18.313 45.9073L19.1106 46.2421C19.2448 46.2966 19.3739 46.3563 19.5107 46.4082L19.9159 46.5613C20.1869 46.6626 20.4554 46.7664 20.7264 46.865L21.5472 47.1401C21.684 47.1842 21.8208 47.2335 21.9576 47.2777L22.3731 47.4022L23.2042 47.6488L24.0431 47.872L24.4613 47.9836L24.8846 48.0822L25.7286 48.2795L26.5804 48.4534L27.0062 48.539L27.4347 48.6143C29.7164 49.0244 32.0188 49.2969 34.3005 49.2839C35.4388 49.2813 36.577 49.2034 37.6895 49.0399C38.7555 48.8764 39.7905 48.5494 40.6113 48.0018C41.0191 47.7293 41.3702 47.4022 41.6335 47.0259C41.8941 46.6496 42.0722 46.2239 42.1626 45.762C42.2065 45.531 42.2297 45.2896 42.2374 45.043C42.2374 44.7965 42.2245 44.5421 42.1936 44.2878C42.1316 43.7817 42 43.273 41.8219 42.7695C41.4605 41.7625 40.9004 40.7814 40.2809 39.8055C39.9712 39.3176 39.6434 38.8245 39.3182 38.3287L38.3451 36.8416L36.4015 33.8673L35.431 32.3775L34.9458 31.63C34.7832 31.3783 34.6128 31.111 34.4528 30.8203C34.2927 30.5296 34.1405 30.2156 34.0269 29.8678C33.9107 29.5252 33.8359 29.1359 33.8307 28.7518C33.823 28.3676 33.8772 28.0017 33.9624 27.6617C34.045 27.3217 34.1585 27.0076 34.2798 26.7118C34.4012 26.4133 34.5276 26.1408 34.6541 25.8683C34.7806 25.5932 34.9045 25.318 35.0413 25.0481C35.3045 24.5057 35.5833 23.971 35.8646 23.4416C36.4299 22.3827 37.0262 21.3497 37.6198 20.3245C38.2135 19.2967 38.8071 18.2767 39.3853 17.2542C39.9609 16.229 40.5055 15.1934 40.9985 14.1371C41.1276 13.875 41.2411 13.6076 41.3573 13.3403L41.5328 12.9406L41.6928 12.5357C41.9148 11.9959 42.1058 11.4535 42.271 10.9032C42.604 9.80539 42.8053 8.66342 42.764 7.53183C42.7408 6.96863 42.653 6.40802 42.4826 5.87596C42.3123 5.34391 42.049 4.843 41.7083 4.394C41.3676 3.94759 40.9469 3.55828 40.4745 3.23645C40.0022 2.91462 39.4782 2.66027 38.9336 2.46043C38.1128 2.15677 37.243 1.98028 36.3628 1.88685C35.7382 1.84273 35.1084 1.81937 34.4734 1.81937C19.57 1.81677 7.45167 14.0021 7.45167 28.9801C7.45167 29.9586 8.23891 30.7502 9.21199 30.7502C10.1851 30.7502 10.9723 29.9586 10.9723 28.9801C10.9723 15.9539 21.511 5.35689 34.4657 5.35689C47.4203 5.35689 31.0896 23.0133 31.0896 28.9801C31.0896 34.947 47.4203 47.667 34.4657 47.667C17.7865 47.667 4.21752 38.9594 4.21752 22.188C4.21752 21.2121 3.43028 20.4205 2.45978 20.4179C2.50366 21.4509 2.55786 22.4839 2.6895 23.5065L2.69208 23.5091Z" fill="#69C4F7"/>
<path d="M2.16556 24.6355C3.36157 24.6355 4.33112 23.6605 4.33112 22.4579C4.33112 21.2553 3.36157 20.2804 2.16556 20.2804C0.969555 20.2804 0 21.2553 0 22.4579C0 23.6605 0.969555 24.6355 2.16556 24.6355Z" fill="#69C4F7"/>
<path d="M5.78428 34.1969C5.9185 34.5109 6.07079 34.8198 6.23082 35.126C6.38827 35.4323 6.55346 35.7334 6.72381 36.0292C7.06452 36.6236 7.42588 37.2075 7.80788 37.7759C8.56673 38.9153 9.40043 40.0028 10.2858 41.0383C10.7323 41.5548 11.1891 42.0609 11.6589 42.5541C12.1313 43.0446 12.6139 43.5273 13.1121 43.9893C14.1032 44.9237 15.146 45.7983 16.2275 46.6184C20.5612 49.8938 25.4886 52.3828 30.7153 53.9582C35.9447 55.5336 41.4063 56.2993 46.8809 56.4835C47.2242 56.5017 47.5649 56.5069 47.9056 56.5147L48.9251 56.5354C49.6066 56.5095 50.2931 56.4654 50.9745 56.416C52.3425 56.3148 53.7054 56.1799 55.0656 55.9982C56.4233 55.8165 57.7784 55.5881 59.1102 55.2741C59.7762 55.1158 60.4369 54.9341 61.0848 54.7109C61.7301 54.4877 62.365 54.2229 62.9458 53.8648L63 53.9504C62.4192 54.3293 61.7817 54.6148 61.1364 54.8588C60.4886 55.1028 59.8278 55.3026 59.1619 55.4791C57.8274 55.8295 56.4723 56.089 55.1095 56.3044C53.7492 56.5199 52.3813 56.686 51.0081 56.8209C50.3215 56.8858 49.6375 56.9455 48.9458 56.9896H47.903C47.5571 56.9948 47.2113 56.9948 46.868 56.987L45.833 56.9663C45.4871 56.9585 45.1438 56.9403 44.8005 56.9273C44.1113 56.904 43.4222 56.8547 42.7356 56.8131C42.3923 56.7898 42.049 56.756 41.7032 56.7301C41.3599 56.7015 41.0166 56.673 40.6733 56.6341L39.6434 56.5251L38.6161 56.3927C35.8776 56.0319 33.1596 55.4817 30.4908 54.7368C27.8245 53.9816 25.2098 53.0213 22.6984 51.8248C20.1895 50.6257 17.7968 49.1541 15.6106 47.4204C14.524 46.5458 13.476 45.6218 12.4926 44.633C11.5144 43.6389 10.5826 42.5956 9.73598 41.4899C8.88421 40.3869 8.10729 39.2268 7.41555 38.0199C7.07226 37.4152 6.74962 36.7975 6.45796 36.1668C6.16629 35.5361 5.89785 34.8951 5.68878 34.228L5.78428 34.1943V34.1969Z" fill="#69C4F7"/>
</g>
<defs>
<clipPath id="clip0_387_509">
<rect width="63" height="57" fill="white"/>
</clipPath>
</defs>
</svg>
